<mxfile host="Electron" modified="2023-06-16T10:32:52.058Z" agent="Mozilla/5.0 (Macintosh; Intel Mac OS X 10_15_7) AppleWebKit/537.36 (KHTML, like Gecko) draw.io/21.2.8 Chrome/112.0.5615.165 Electron/24.2.0 Safari/537.36" etag="7M8GVrnBGlegDo9ZmUIb" version="21.2.8" type="device">
  <diagram name="Page-1" id="jgHbtjzMasFGtNTMjIiu">
    <mxGraphModel dx="954" dy="610" grid="1" gridSize="10" guides="1" tooltips="1" connect="1" arrows="1" fold="1" page="1" pageScale="1" pageWidth="1043" pageHeight="815" math="0" shadow="0">
      <root>
        <mxCell id="0" />
        <mxCell id="1" parent="0" />
        <mxCell id="JHtc7Qgezee9kOvQ36Wa-8" style="edgeStyle=orthogonalEdgeStyle;rounded=0;orthogonalLoop=1;jettySize=auto;html=1;" edge="1" parent="1" source="JHtc7Qgezee9kOvQ36Wa-1" target="JHtc7Qgezee9kOvQ36Wa-2">
          <mxGeometry relative="1" as="geometry" />
        </mxCell>
        <mxCell id="JHtc7Qgezee9kOvQ36Wa-1" value="Transaction switch" style="rounded=0;whiteSpace=wrap;html=1;" vertex="1" parent="1">
          <mxGeometry x="240" y="95" width="120" height="60" as="geometry" />
        </mxCell>
        <mxCell id="JHtc7Qgezee9kOvQ36Wa-13" style="edgeStyle=orthogonalEdgeStyle;rounded=0;orthogonalLoop=1;jettySize=auto;html=1;" edge="1" parent="1" source="JHtc7Qgezee9kOvQ36Wa-2" target="JHtc7Qgezee9kOvQ36Wa-3">
          <mxGeometry relative="1" as="geometry" />
        </mxCell>
        <mxCell id="JHtc7Qgezee9kOvQ36Wa-2" value="Primary Node&lt;br&gt;" style="shape=cylinder3;whiteSpace=wrap;html=1;boundedLbl=1;backgroundOutline=1;size=15;" vertex="1" parent="1">
          <mxGeometry x="540" y="100" width="60" height="80" as="geometry" />
        </mxCell>
        <mxCell id="JHtc7Qgezee9kOvQ36Wa-14" style="edgeStyle=orthogonalEdgeStyle;rounded=0;orthogonalLoop=1;jettySize=auto;html=1;entryX=1;entryY=0.5;entryDx=0;entryDy=0;" edge="1" parent="1" source="JHtc7Qgezee9kOvQ36Wa-3" target="JHtc7Qgezee9kOvQ36Wa-4">
          <mxGeometry relative="1" as="geometry" />
        </mxCell>
        <mxCell id="JHtc7Qgezee9kOvQ36Wa-3" value="Replicate&lt;br&gt;Node" style="shape=cylinder3;whiteSpace=wrap;html=1;boundedLbl=1;backgroundOutline=1;size=15;" vertex="1" parent="1">
          <mxGeometry x="540" y="220" width="60" height="80" as="geometry" />
        </mxCell>
        <mxCell id="JHtc7Qgezee9kOvQ36Wa-4" value="Reconciliation Server" style="rounded=0;whiteSpace=wrap;html=1;" vertex="1" parent="1">
          <mxGeometry x="240" y="280" width="120" height="60" as="geometry" />
        </mxCell>
        <mxCell id="JHtc7Qgezee9kOvQ36Wa-5" value="Transaction switch (standby)" style="rounded=0;whiteSpace=wrap;html=1;" vertex="1" parent="1">
          <mxGeometry x="240" y="185" width="120" height="60" as="geometry" />
        </mxCell>
        <mxCell id="JHtc7Qgezee9kOvQ36Wa-15" style="edgeStyle=orthogonalEdgeStyle;rounded=0;orthogonalLoop=1;jettySize=auto;html=1;entryX=1;entryY=0;entryDx=0;entryDy=52.5;entryPerimeter=0;" edge="1" parent="1" source="JHtc7Qgezee9kOvQ36Wa-6" target="JHtc7Qgezee9kOvQ36Wa-2">
          <mxGeometry relative="1" as="geometry" />
        </mxCell>
        <mxCell id="JHtc7Qgezee9kOvQ36Wa-6" value="Web service" style="rounded=0;whiteSpace=wrap;html=1;" vertex="1" parent="1">
          <mxGeometry x="670" y="140" width="120" height="60" as="geometry" />
        </mxCell>
        <mxCell id="JHtc7Qgezee9kOvQ36Wa-16" style="edgeStyle=orthogonalEdgeStyle;rounded=0;orthogonalLoop=1;jettySize=auto;html=1;entryX=0.5;entryY=0;entryDx=0;entryDy=0;entryPerimeter=0;" edge="1" parent="1" source="JHtc7Qgezee9kOvQ36Wa-7" target="JHtc7Qgezee9kOvQ36Wa-2">
          <mxGeometry relative="1" as="geometry" />
        </mxCell>
        <mxCell id="JHtc7Qgezee9kOvQ36Wa-7" value="Epin module" style="rounded=0;whiteSpace=wrap;html=1;" vertex="1" parent="1">
          <mxGeometry x="670" y="50" width="120" height="60" as="geometry" />
        </mxCell>
        <mxCell id="JHtc7Qgezee9kOvQ36Wa-11" style="edgeStyle=orthogonalEdgeStyle;rounded=0;orthogonalLoop=1;jettySize=auto;html=1;" edge="1" parent="1" source="JHtc7Qgezee9kOvQ36Wa-10" target="JHtc7Qgezee9kOvQ36Wa-1">
          <mxGeometry relative="1" as="geometry" />
        </mxCell>
        <mxCell id="JHtc7Qgezee9kOvQ36Wa-12" style="edgeStyle=orthogonalEdgeStyle;rounded=0;orthogonalLoop=1;jettySize=auto;html=1;entryX=0;entryY=0.75;entryDx=0;entryDy=0;" edge="1" parent="1" source="JHtc7Qgezee9kOvQ36Wa-10" target="JHtc7Qgezee9kOvQ36Wa-5">
          <mxGeometry relative="1" as="geometry">
            <Array as="points">
              <mxPoint x="130" y="230" />
            </Array>
          </mxGeometry>
        </mxCell>
        <mxCell id="JHtc7Qgezee9kOvQ36Wa-10" value="Load Balancer" style="rounded=0;whiteSpace=wrap;html=1;" vertex="1" parent="1">
          <mxGeometry x="70" y="140" width="120" height="60" as="geometry" />
        </mxCell>
      </root>
    </mxGraphModel>
  </diagram>
</mxfile>
